<svg xmlns="http://www.w3.org/2000/svg" width="1500" height="750"><path d="M242,-331L1123,-398L1428,-503Z" fill="#757575" stroke="#757575" stroke-width="1.51"/><path d="M-273,-375L242,-331L1428,-503Z" fill="#777777" stroke="#777777" stroke-width="1.51"/><path d="M1442,462L1670,961L1947,245Z" fill="#737373" stroke="#737373" stroke-width="1.51"/><path d="M1947,245L1670,961L2026,970Z" fill="#4e4e4e" stroke="#4e4e4e" stroke-width="1.51"/><path d="M1670,961L1469,1025L2120,1120Z" fill="#808080" stroke="#808080" stroke-width="1.51"/><path d="M1469,1025L961,1237L2120,1120Z" fill="#737373" stroke="#737373" stroke-width="1.51"/><path d="M1947,245L2026,970L2120,1120Z" fill="#434343" stroke="#434343" stroke-width="1.51"/><path d="M1526,-186L1865,71L2146,-423Z" fill="#626262" stroke="#626262" stroke-width="1.51"/><path d="M1428,-503L1526,-186L2146,-423Z" fill="#808080" stroke="#808080" stroke-width="1.51"/><path d="M1865,71L1947,245L2146,-423Z" fill="#404040" stroke="#404040" stroke-width="1.51"/><path d="M1947,245L2120,1120L2146,-423Z" fill="#484848" stroke="#484848" stroke-width="1.51"/><path d="M2026,970L1670,961L2120,1120Z" fill="#6a6a6a" stroke="#6a6a6a" stroke-width="1.51"/><path d="M1865,71L1442,462L1947,245Z" fill="#707070" stroke="#707070" stroke-width="1.51"/><path d="M1526,-186L1442,462L1865,71Z" fill="#8a8a8a" stroke="#8a8a8a" stroke-width="1.51"/><path d="M1349,-132L1143,318L1442,462Z" fill="#656565" stroke="#656565" stroke-width="1.51"/><path d="M1349,-132L1442,462L1526,-186Z" fill="#6f6f6f" stroke="#6f6f6f" stroke-width="1.51"/><path d="M1442,462L1469,1025L1670,961Z" fill="#737373" stroke="#737373" stroke-width="1.51"/><path d="M1442,462L1066,605L1469,1025Z" fill="#4d4d4d" stroke="#4d4d4d" stroke-width="1.51"/><path d="M1428,-503L1349,-132L1526,-186Z" fill="#838383" stroke="#838383" stroke-width="1.51"/><path d="M1123,-398L1349,-132L1428,-503Z" fill="#6c6c6c" stroke="#6c6c6c" stroke-width="1.51"/><path d="M1066,605L923,1178L1469,1025Z" fill="#5b5b5b" stroke="#5b5b5b" stroke-width="1.51"/><path d="M923,1178L961,1237L1469,1025Z" fill="#4b4b4b" stroke="#4b4b4b" stroke-width="1.51"/><path d="M1143,318L1066,605L1442,462Z" fill="#676767" stroke="#676767" stroke-width="1.51"/><path d="M815,-97L1143,318L1349,-132Z" fill="#505050" stroke="#505050" stroke-width="1.51"/><path d="M928,-237L815,-97L1349,-132Z" fill="#585858" stroke="#585858" stroke-width="1.51"/><path d="M1123,-398L928,-237L1349,-132Z" fill="#616161" stroke="#616161" stroke-width="1.51"/><path d="M819,594L923,1178L1066,605Z" fill="#6a6a6a" stroke="#6a6a6a" stroke-width="1.51"/><path d="M242,-331L928,-237L1123,-398Z" fill="#828282" stroke="#828282" stroke-width="1.51"/><path d="M819,594L1066,605L1143,318Z" fill="#6a6a6a" stroke="#6a6a6a" stroke-width="1.51"/><path d="M620,350L819,594L1143,318Z" fill="#878787" stroke="#878787" stroke-width="1.51"/><path d="M815,-97L620,350L1143,318Z" fill="#808080" stroke="#808080" stroke-width="1.51"/><path d="M819,594L516,676L923,1178Z" fill="#6f6f6f" stroke="#6f6f6f" stroke-width="1.51"/><path d="M923,1178L220,1322L961,1237Z" fill="#565656" stroke="#565656" stroke-width="1.51"/><path d="M516,676L220,1322L923,1178Z" fill="#787878" stroke="#787878" stroke-width="1.51"/><path d="M242,-331L815,-97L928,-237Z" fill="#767676" stroke="#767676" stroke-width="1.51"/><path d="M231,120L620,350L815,-97Z" fill="#787878" stroke="#787878" stroke-width="1.51"/><path d="M620,350L516,676L819,594Z" fill="#686868" stroke="#686868" stroke-width="1.51"/><path d="M242,-331L231,120L815,-97Z" fill="#5f5f5f" stroke="#5f5f5f" stroke-width="1.51"/><path d="M41,1096L220,1322L516,676Z" fill="#777777" stroke="#777777" stroke-width="1.51"/><path d="M10,926L41,1096L516,676Z" fill="#626262" stroke="#626262" stroke-width="1.51"/><path d="M199,308L516,676L620,350Z" fill="#838383" stroke="#838383" stroke-width="1.51"/><path d="M231,120L199,308L620,350Z" fill="#757575" stroke="#757575" stroke-width="1.51"/><path d="M199,308L10,926L516,676Z" fill="#494949" stroke="#494949" stroke-width="1.51"/><path d="M-33,187L-455,507L10,926Z" fill="#7e7e7e" stroke="#7e7e7e" stroke-width="1.51"/><path d="M-455,507L-359,823L10,926Z" fill="#696969" stroke="#696969" stroke-width="1.51"/><path d="M-33,187L10,926L199,308Z" fill="#686868" stroke="#686868" stroke-width="1.51"/><path d="M41,1096L-589,1101L220,1322Z" fill="#707070" stroke="#707070" stroke-width="1.51"/><path d="M-152,127L-33,187L231,120Z" fill="#6b6b6b" stroke="#6b6b6b" stroke-width="1.51"/><path d="M-33,187L199,308L231,120Z" fill="#565656" stroke="#565656" stroke-width="1.51"/><path d="M-152,127L231,120L242,-331Z" fill="#404040" stroke="#404040" stroke-width="1.51"/><path d="M-239,-313L-152,127L242,-331Z" fill="#6b6b6b" stroke="#6b6b6b" stroke-width="1.51"/><path d="M-273,-375L-239,-313L242,-331Z" fill="#838383" stroke="#838383" stroke-width="1.51"/><path d="M-239,-313L-331,-23L-152,127Z" fill="#5e5e5e" stroke="#5e5e5e" stroke-width="1.51"/><path d="M-152,127L-455,507L-33,187Z" fill="#797979" stroke="#797979" stroke-width="1.51"/><path d="M10,926L-359,823L41,1096Z" fill="#868686" stroke="#868686" stroke-width="1.51"/><path d="M-359,823L-589,1101L41,1096Z" fill="#878787" stroke="#878787" stroke-width="1.51"/><path d="M-331,-23L-455,507L-152,127Z" fill="#767676" stroke="#767676" stroke-width="1.51"/><path d="M-455,507L-331,-23L-273,-375Z" fill="#6c6c6c" stroke="#6c6c6c" stroke-width="1.51"/><path d="M-273,-375L-331,-23L-239,-313Z" fill="#848484" stroke="#848484" stroke-width="1.51"/><path d="M-455,507L-589,1101L-359,823Z" fill="#606060" stroke="#606060" stroke-width="1.51"/></svg>