<svg xmlns="http://www.w3.org/2000/svg" width="1500" height="750"><path d="M259,-346L1127,-403L1448,-490Z" fill="#7c7c7c" stroke="#7c7c7c" stroke-width="1.51"/><path d="M-302,-383L259,-346L1448,-490Z" fill="#797979" stroke="#797979" stroke-width="1.51"/><path d="M1459,448L1650,931L1947,265Z" fill="#989898" stroke="#989898" stroke-width="1.51"/><path d="M1947,265L1650,931L2014,939Z" fill="#787878" stroke="#787878" stroke-width="1.51"/><path d="M1482,1049L991,1227L2093,1129Z" fill="#727272" stroke="#727272" stroke-width="1.51"/><path d="M1650,931L1482,1049L2093,1129Z" fill="#6e6e6e" stroke="#6e6e6e" stroke-width="1.51"/><path d="M1947,265L2014,939L2093,1129Z" fill="#5f5f5f" stroke="#5f5f5f" stroke-width="1.51"/><path d="M1530,-161L1879,56L2115,-423Z" fill="#626262" stroke="#626262" stroke-width="1.51"/><path d="M1448,-490L1530,-161L2115,-423Z" fill="#5b5b5b" stroke="#5b5b5b" stroke-width="1.51"/><path d="M1879,56L1947,265L2115,-423Z" fill="#5d5d5d" stroke="#5d5d5d" stroke-width="1.51"/><path d="M1947,265L2093,1129L2115,-423Z" fill="#767676" stroke="#767676" stroke-width="1.51"/><path d="M2014,939L1650,931L2093,1129Z" fill="#5c5c5c" stroke="#5c5c5c" stroke-width="1.51"/><path d="M1879,56L1459,448L1947,265Z" fill="#989898" stroke="#989898" stroke-width="1.51"/><path d="M1530,-161L1459,448L1879,56Z" fill="#949494" stroke="#949494" stroke-width="1.51"/><path d="M1317,-115L1144,327L1459,448Z" fill="#b2b2b2" stroke="#b2b2b2" stroke-width="1.51"/><path d="M1459,448L1079,632L1482,1049Z" fill="#a0a0a0" stroke="#a0a0a0" stroke-width="1.51"/><path d="M1317,-115L1459,448L1530,-161Z" fill="#9a9a9a" stroke="#9a9a9a" stroke-width="1.51"/><path d="M1459,448L1482,1049L1650,931Z" fill="#8f8f8f" stroke="#8f8f8f" stroke-width="1.51"/><path d="M1448,-490L1317,-115L1530,-161Z" fill="#777777" stroke="#777777" stroke-width="1.51"/><path d="M1127,-403L1317,-115L1448,-490Z" fill="#737373" stroke="#737373" stroke-width="1.51"/><path d="M1079,632L991,1227L1482,1049Z" fill="#939393" stroke="#939393" stroke-width="1.51"/><path d="M1144,327L1079,632L1459,448Z" fill="#bbbbbb" stroke="#bbbbbb" stroke-width="1.51"/><path d="M895,1177L991,1227L1079,632Z" fill="#9b9b9b" stroke="#9b9b9b" stroke-width="1.51"/><path d="M259,-346L900,-267L1127,-403Z" fill="#939393" stroke="#939393" stroke-width="1.51"/><path d="M1127,-403L900,-267L1317,-115Z" fill="#848484" stroke="#848484" stroke-width="1.51"/><path d="M804,-85L1144,327L1317,-115Z" fill="#a9a9a9" stroke="#a9a9a9" stroke-width="1.51"/><path d="M900,-267L804,-85L1317,-115Z" fill="#989898" stroke="#989898" stroke-width="1.51"/><path d="M895,1177L241,1298L991,1227Z" fill="#878787" stroke="#878787" stroke-width="1.51"/><path d="M808,623L895,1177L1079,632Z" fill="#b1b1b1" stroke="#b1b1b1" stroke-width="1.51"/><path d="M808,623L1079,632L1144,327Z" fill="#c0c0c0" stroke="#c0c0c0" stroke-width="1.51"/><path d="M641,354L808,623L1144,327Z" fill="#d5d5d5" stroke="#d5d5d5" stroke-width="1.51"/><path d="M804,-85L641,354L1144,327Z" fill="#cacaca" stroke="#cacaca" stroke-width="1.51"/><path d="M808,623L490,692L895,1177Z" fill="#bbbbbb" stroke="#bbbbbb" stroke-width="1.51"/><path d="M490,692L241,1298L895,1177Z" fill="#9a9a9a" stroke="#9a9a9a" stroke-width="1.51"/><path d="M259,-346L804,-85L900,-267Z" fill="#9a9a9a" stroke="#9a9a9a" stroke-width="1.51"/><path d="M250,97L641,354L804,-85Z" fill="#bebebe" stroke="#bebebe" stroke-width="1.51"/><path d="M641,354L490,692L808,623Z" fill="#cacaca" stroke="#cacaca" stroke-width="1.51"/><path d="M259,-346L250,97L804,-85Z" fill="#9a9a9a" stroke="#9a9a9a" stroke-width="1.51"/><path d="M26,1109L241,1298L490,692Z" fill="#868686" stroke="#868686" stroke-width="1.51"/><path d="M0,902L26,1109L490,692Z" fill="#8c8c8c" stroke="#8c8c8c" stroke-width="1.51"/><path d="M223,319L490,692L641,354Z" fill="#c7c7c7" stroke="#c7c7c7" stroke-width="1.51"/><path d="M250,97L223,319L641,354Z" fill="#bdbdbd" stroke="#bdbdbd" stroke-width="1.51"/><path d="M-302,-383L-209,-331L259,-346Z" fill="#565656" stroke="#565656" stroke-width="1.51"/><path d="M223,319L0,902L490,692Z" fill="#a3a3a3" stroke="#a3a3a3" stroke-width="1.51"/><path d="M-35,217L0,902L223,319Z" fill="#a5a5a5" stroke="#a5a5a5" stroke-width="1.51"/><path d="M26,1109L-567,1113L241,1298Z" fill="#585858" stroke="#585858" stroke-width="1.51"/><path d="M-35,217L223,319L250,97Z" fill="#a6a6a6" stroke="#a6a6a6" stroke-width="1.51"/><path d="M-136,103L-35,217L250,97Z" fill="#959595" stroke="#959595" stroke-width="1.51"/><path d="M-136,103L250,97L259,-346Z" fill="#888888" stroke="#888888" stroke-width="1.51"/><path d="M-209,-331L-136,103L259,-346Z" fill="#6c6c6c" stroke="#6c6c6c" stroke-width="1.51"/><path d="M-35,217L-454,485L0,902Z" fill="#8c8c8c" stroke="#8c8c8c" stroke-width="1.51"/><path d="M-209,-331L-350,-23L-136,103Z" fill="#676767" stroke="#676767" stroke-width="1.51"/><path d="M-454,485L-374,816L0,902Z" fill="#737373" stroke="#737373" stroke-width="1.51"/><path d="M0,902L-374,816L26,1109Z" fill="#717171" stroke="#717171" stroke-width="1.51"/><path d="M-374,816L-567,1113L26,1109Z" fill="#5c5c5c" stroke="#5c5c5c" stroke-width="1.51"/><path d="M-136,103L-454,485L-35,217Z" fill="#8d8d8d" stroke="#8d8d8d" stroke-width="1.51"/><path d="M-350,-23L-454,485L-136,103Z" fill="#7d7d7d" stroke="#7d7d7d" stroke-width="1.51"/><path d="M-302,-383L-350,-23L-209,-331Z" fill="#525252" stroke="#525252" stroke-width="1.51"/><path d="M-454,485L-350,-23L-302,-383Z" fill="#676767" stroke="#676767" stroke-width="1.51"/><path d="M-454,485L-567,1113L-374,816Z" fill="#5d5d5d" stroke="#5d5d5d" stroke-width="1.51"/></svg>